<svg width="48" height="48" viewBox="0 0 48 48" fill="none" xmlns="http://www.w3.org/2000/svg">
  <g clip-path="url(#clip0_15_7)">
  <path d="M24 24C26.3869 24 28.6761 23.0518 30.364 21.364C32.0518 19.6761 33 17.3869 33 15C33 12.6131 32.0518 10.3239 30.364 8.63604C28.6761 6.94821 26.3869 6 24 6C21.6131 6 19.3239 6.94821 17.636 8.63604C15.9482 10.3239 15 12.6131 15 15C15 17.3869 15.9482 19.6761 17.636 21.364C19.3239 23.0518 21.6131 24 24 24ZM24 27C19.7565 27 15.6869 25.3143 12.6863 22.3137C9.68571 19.3131 8 15.2435 8 11C8 6.75651 9.68571 2.68687 12.6863 -0.313709C15.6869 -3.31429 19.7565 -5 24 -5C28.2435 -5 32.3131 -3.31429 35.3137 -0.313709C38.3143 2.68687 40 6.75651 40 11C40 15.2435 38.3143 19.3131 35.3137 22.3137C32.3131 25.3143 28.2435 27 24 27ZM24 30C31.5 30 48 33.75 48 41.25V48H0V41.25C0 33.75 16.5 30 24 30ZM24 33.75C15.75 33.75 3.75 37.5 3.75 41.25V44.25H44.25V41.25C44.25 37.5 32.25 33.75 24 33.75Z" fill="white"/>
  </g>
  <rect x="0.5" y="0.5" width="47" height="47" stroke="white" stroke-opacity="0.24"/>
  <defs>
  <clipPath id="clip0_15_7">
  <rect width="48" height="48" fill="white"/>
  </clipPath>
  </defs>
</svg>
