<svg width="48" height="48" viewBox="0 0 48 48" fill="none" xmlns="http://www.w3.org/2000/svg">
  <g clip-path="url(#clip0_15_9)">
  <path d="M24 12C25.5913 12 27.1174 11.3679 28.2426 10.2426C29.3679 9.11742 30 7.5913 30 6C30 4.4087 29.3679 2.88258 28.2426 1.75736C27.1174 0.632141 25.5913 0 24 0C22.4087 0 20.8826 0.632141 19.7574 1.75736C18.6321 2.88258 18 4.4087 18 6C18 7.5913 18.6321 9.11742 19.7574 10.2426C20.8826 11.3679 22.4087 12 24 12ZM24 15C21.6131 15 19.3239 14.0518 17.636 12.364C15.9482 10.6761 15 8.38695 15 6C15 3.61305 15.9482 1.32387 17.636 -0.363961C19.3239 -2.05179 21.6131 -3 24 -3C26.3869 -3 28.6761 -2.05179 30.364 -0.363961C32.0518 1.32387 33 3.61305 33 6C33 8.38695 32.0518 10.6761 30.364 12.364C28.6761 14.0518 26.3869 15 24 15ZM33 21H15C13.4087 21 11.8826 21.6321 10.7574 22.7574C9.63214 23.8826 9 25.4087 9 27V48H12V27C12 26.2044 12.3161 25.4413 12.8787 24.8787C13.4413 24.3161 14.2044 24 15 24H33C33.7956 24 34.5587 24.3161 35.1213 24.8787C35.6839 25.4413 36 26.2044 36 27V48H39V27C39 25.4087 38.3679 23.8826 37.2426 22.7574C36.1174 21.6321 34.5913 21 33 21ZM24 27C22.4087 27 20.8826 27.6321 19.7574 28.7574C18.6321 29.8826 18 31.4087 18 33V48H21V33C21 32.2044 21.3161 31.4413 21.8787 30.8787C22.4413 30.3161 23.2044 30 24 30C24.7956 30 25.5587 30.3161 26.1213 30.8787C26.6839 31.4413 27 32.2044 27 33V48H30V33C30 31.4087 29.3679 29.8826 28.2426 28.7574C27.1174 27.6321 25.5913 27 24 27Z" fill="white"/>
  </g>
  <rect x="0.5" y="0.5" width="47" height="47" stroke="white" stroke-opacity="0.24"/>
  <defs>
  <clipPath id="clip0_15_9">
  <rect width="48" height="48" fill="white"/>
  </clipPath>
  </defs>
</svg>
